<svg xmlns="http://www.w3.org/2000/svg" width="166" height="166.766" viewBox="0 0 166 166.766"><g transform="translate(-0.268 -0.089)"><g transform="translate(0.268 0.089)"><path d="M.268,83.472c0-46.052,37.16-83.383,83-83.383s83,37.331,83,83.383-37.16,83.383-83,83.383-83-37.332-83-83.383ZM24.587,129.03l33.269-82.7H18.966a74.834,74.834,0,0,0,5.62,82.7Zm117,.464H24.946a73.958,73.958,0,0,0,116.643,0ZM86.5,37.072,53.459,118.562H148.7a74.915,74.915,0,0,0-.933-71.88H111.386V72.357h20.1V83.325h-20.1v28.732H88.7V37.072h52.59a73.956,73.956,0,0,0-116.051,0Z" transform="translate(-0.268 -0.089)" fill="#fff"/></g></g></svg>